<svg width="2223" height="150" viewBox="0 0 2223 150" fill="none" xmlns="http://www.w3.org/2000/svg">
<path d="M1439.17 149.774C1440.17 149.774 1456.27 148.608 1829.33 147.942C2045.33 147.542 2222.13 147.142 2222.27 146.875C2223.33 145.942 2222.4 140.078 2220.93 138.879C2220.13 138.212 2207.33 132.481 2192.67 126.35C2164.27 114.355 2165.73 115.288 2103.33 70.2391C2084.67 56.7777 2062.93 41.717 2050.4 33.4536L2035.33 23.5908L1324.4 23.7241C837.734 23.9906 613.2 23.5907 612.667 22.6578C612 21.4582 614.134 17.1933 618.8 10.3959C619.2 9.72954 735.467 9.32971 877.067 9.32972L1134.67 9.32974L1134.67 4.66492L1134.67 9.91957e-05L878.134 7.67689e-05L621.6 5.4342e-05L613.867 11.9953L606.267 23.9906L538 23.9906L469.6 23.9906L459.333 35.3194L449.067 46.6483L268 46.6482L86.9336 46.6482L82.6667 51.7129C78.2667 56.7776 46.8 90.231 24.8 113.289C2.6667 136.479 0.00023193 139.678 0.000231627 143.143C0.000231475 144.876 0.933532 146.742 2.13353 147.142C3.33353 147.542 321.067 147.942 708.4 147.942C1134 147.942 1413.57 149.108 1414.77 149.774C1415.77 149.774 1417.05 149.616 1417.87 149.674C1419.27 149.774 1420.77 149.774 1422.77 149.774C1424.77 149.908 1428.4 149.774 1430.67 149.774C1433.17 149.774 1432.26 149.774 1433.67 149.774C1434.67 149.774 1435 149.774 1435.67 149.774C1436.47 149.774 1436.17 149.774 1439.17 149.774ZM457.333 137.546C457.333 137.013 460 133.947 463.067 130.882L468.933 125.151L1319.47 125.151L2170 125.284L2183.6 130.748C2191.2 133.814 2197.33 136.746 2197.33 137.413C2197.33 138.079 1834.8 138.612 1327.33 138.612C848.8 138.612 457.333 138.079 457.333 137.546ZM432.134 129.016C423.6 123.818 402 110.09 384 98.6277C366 87.1656 344.267 73.4377 335.6 68.1064C319.867 58.2437 317.067 56.1112 320.267 55.8446C321.2 55.8446 715.867 55.8446 1197.07 55.8447L2072.27 55.8448L2079.47 60.7761C2083.47 63.575 2087.47 66.6405 2088.27 67.5735C2089.47 69.0395 1950.13 69.3061 1297.73 69.306C666.134 69.306 505.467 69.7058 503.867 71.0386C500.933 73.3044 488.667 89.4313 479.734 102.493C472 113.955 450.933 138.345 448.8 138.479C448.133 138.612 440.534 134.347 432.134 129.016ZM9.33348 137.279C9.33348 136.613 16.1335 129.016 24.2668 120.352C32.5335 111.689 45.6002 98.0945 53.3335 89.9644C61.0668 81.9676 71.8668 70.772 77.3335 65.1742L87.3335 55.0449L104 55.4448C113.2 55.7113 162.134 55.9779 212.667 55.9779L304.8 55.9779L337.333 76.6364C355.333 88.0985 384 106.225 400.933 117.02C418 127.816 432 137.013 432 137.679C432 138.212 336.934 138.612 220.667 138.612C84.4002 138.612 9.33348 138.212 9.33348 137.279ZM476 115.021C476 114.355 478.134 111.156 480.667 107.558L485.333 101.293L1310.8 101.293L2136.27 101.293L2144.8 107.424C2149.47 110.756 2153.33 113.955 2153.33 114.755C2153.33 115.421 1843.2 115.954 1314.67 115.954C853.334 115.954 476 115.554 476 115.021ZM494.134 92.097C493.6 91.4306 495.334 88.2318 497.734 85.0331L502.134 79.302L1303.2 78.9022L2104.27 78.6358L2113.2 84.8999L2122 91.2974L1374 91.9638C962.534 92.3636 596.533 92.7634 560.4 93.0299C521.867 93.1632 494.534 92.7634 494.134 92.097ZM457.333 45.7153C457.333 45.0489 460 41.8502 463.333 38.3849L469.2 31.9874L1252.4 31.9875L2035.47 31.9875L2045.07 38.1184C2050.4 41.4505 2054.67 44.7825 2054.67 45.4489C2054.67 46.1153 1733.73 46.6484 1256 46.6483C816.667 46.6483 457.333 46.2484 457.333 45.7153Z" fill="black"/>
<path d="M196.767 60.8335C196.367 60.1669 195.7 59.5002 195.3 59.5002C195.034 59.5002 194.767 60.1669 194.767 60.8335C194.767 61.6335 195.434 62.1669 196.234 62.1669C196.9 62.1669 197.167 61.6335 196.767 60.8335Z" fill="black"/>
</svg>
